<svg width="1440" height="180" viewBox="0 0 1440 180" fill="none" xmlns="http://www.w3.org/2000/svg">
<g opacity="0.5">
<path d="M467.8 245.673L467.8 175.851L467.114 175.457L407.348 140.961L406.635 141.355L346.864 175.851L346.864 245.673L347.55 246.067L407.348 280.563L408.061 280.169L467.8 245.673ZM465.002 177.478L465.002 244.073L407.348 277.359L349.662 244.054L349.662 177.459L407.348 144.173L465.002 177.478Z" fill="#363131"/>
<path d="M455.734 429.338L455.734 373.457L455.186 373.126L407.344 345.515L406.773 345.834L358.93 373.457L358.93 429.338L359.478 429.669L407.344 457.281L407.915 456.961L455.734 429.338ZM453.496 374.754L453.496 428.046L407.344 454.692L361.169 428.046L361.169 374.754L407.344 348.108L453.496 374.754Z" fill="#363131"/>
<path d="M602.07 313.104L602.07 253.996L601.491 253.649L550.878 224.438L550.275 224.777L499.667 253.996L499.667 313.104L500.246 313.455L550.878 342.662L551.485 342.327L602.07 313.104ZM599.706 255.363L599.706 311.737L550.882 339.919L502.039 311.737L502.039 255.363L550.882 227.176L599.706 255.363Z" fill="#363131"/>
<path d="M698.322 238.616L698.322 204.617L697.987 204.416L668.87 187.609L668.519 187.806L639.387 204.617L639.387 238.632L639.718 238.833L668.854 255.635L669.201 255.442L698.322 238.616ZM696.943 205.405L696.943 237.84L668.854 254.059L640.75 237.84L640.75 205.405L668.854 189.19L696.943 205.405Z" fill="#363131"/>
<path d="M575.444 152.858L575.444 124.092L575.16 123.922L550.528 109.705L550.236 109.87L525.604 124.092L525.604 152.858L525.887 153.027L550.528 167.245L550.823 167.079L575.444 152.858ZM574.289 124.754L574.289 152.208L550.528 165.925L526.758 152.208L526.758 124.754L550.528 111.037L574.289 124.754Z" fill="#363131"/>
<path d="M577.741 426.158L577.741 393.294L577.418 393.101L549.286 376.866L548.947 377.051L520.816 393.294L520.816 426.158L521.139 426.351L549.286 442.59L549.621 442.401L577.741 426.158ZM576.425 394.059L576.425 425.394L549.286 441.065L522.132 425.394L522.132 394.059L549.286 378.387L576.425 394.059Z" fill="#363131"/>
<path d="M492.03 483.572L492.03 450.708L491.707 450.515L463.576 434.276L463.237 434.465L435.105 450.708L435.105 483.572L435.428 483.765L463.576 500L463.911 499.815L492.03 483.572ZM490.714 451.468L490.714 482.819L463.576 498.491L436.421 482.819L436.421 451.48L463.576 435.813L490.714 451.468Z" fill="#363131"/>
<path d="M308.101 474.651L308.101 438.003L307.743 437.787L276.36 419.66L275.986 419.869L244.603 437.996L244.603 474.643L244.962 474.859L276.36 492.986L276.754 492.777L308.101 474.651ZM306.631 438.843L306.631 473.799L276.36 491.276L246.073 473.799L246.073 438.843L276.36 421.366L306.631 438.843Z" fill="#363131"/>
<path d="M195.508 280.819L195.508 260.301L195.319 260.178L177.752 250.039L177.539 250.154L159.972 260.301L159.972 280.819L160.173 280.941L177.752 291.08L177.961 290.966L195.508 280.819ZM194.72 260.773L194.72 280.346L177.776 290.131L160.831 280.346L160.831 260.773L177.776 250.989L194.72 260.773Z" fill="#363131"/>
<path d="M289.687 145.997L289.687 116.66L289.4 116.486L264.282 101.989L263.987 102.163L238.87 116.668L238.87 146.005L239.158 146.178L264.286 160.672L264.586 160.483L289.687 145.997ZM288.505 117.338L288.505 145.316L264.275 159.304L240.036 145.316L240.036 117.338L264.275 103.349L288.505 117.338Z" fill="#363131"/>
<path d="M375.035 74.6694L375.036 42.6604L374.72 42.4712L347.298 26.646L346.971 26.8273L319.549 42.6604L319.549 74.6891L319.864 74.8783L347.298 90.7035L347.613 90.5025L375.035 74.6694ZM373.751 43.3815L373.751 73.9247L347.298 89.1982L320.817 73.9247L320.817 43.3815L347.282 28.1119L373.751 43.3815Z" fill="#363131"/>
<path d="M318.028 349.385L318.028 301.203L317.555 300.92L276.289 277.123L275.797 277.399L234.543 301.215L234.543 349.396L235.016 349.68L276.289 373.489L276.782 373.213L318.028 349.385ZM316.089 302.319L316.089 348.269L276.289 371.243L236.49 348.269L236.49 302.319L276.289 279.345L316.089 302.319Z" fill="#363131"/>
<path d="M350.092 176.733L288.935 144.539L288.107 146.076L349.264 178.27L350.092 176.733Z" fill="#363131"/>
<path d="M236.171 301.649L194.756 279.818L194.046 281.079L235.461 302.87L236.171 301.649Z" fill="#363131"/>
<path d="M406.323 346.453L406.323 277.34L408.108 277.34L408.108 346.453L406.323 346.453Z" fill="#363131"/>
<path d="M527.101 153.011L526.392 151.396L464.643 176.694L465.353 178.31L527.101 153.011Z" fill="#363131"/>
<path d="M549.629 226.132L549.629 165.905L551.41 165.905L551.41 226.132L549.629 226.132Z" fill="#363131"/>
<path d="M641.101 238.639L640.392 237.024L600.238 254.362L600.907 255.978L641.101 238.639Z" fill="#363131"/>
<path d="M361.598 373.997L317.228 347.95L316.321 349.487L360.731 375.495L361.598 373.997Z" fill="#363131"/>
<path d="M274.989 420.815L274.989 371.79L276.774 371.79L276.774 420.815L274.989 420.815Z" fill="#363131"/>
<path d="M11.8275 219.047L11.8275 149.232L11.1418 148.838L-48.6244 114.327L-49.3376 114.721L-109.096 149.232L-109.096 219.047L-108.41 219.441L-48.6244 253.952L-47.9112 253.558L11.8275 219.047ZM9.02974 150.852L9.02973 217.447L-48.6244 250.721L-106.306 217.427L-106.306 150.832L-48.6244 117.566L9.02974 150.852Z" fill="#363131"/>
<path d="M-0.234525 402.712L-0.234523 346.831L-0.786197 346.5L-48.6284 318.893L-49.1997 319.208L-97.0419 346.831L-97.0419 402.712L-96.4941 403.043L-48.6284 430.654L-48.057 430.335L-0.234525 402.712ZM-2.47669 348.127L-2.4767 401.419L-48.6284 428.046L-94.7997 401.404L-94.7997 348.127L-48.6284 321.481L-2.47669 348.127Z" fill="#363131"/>
<path d="M146.098 286.482L146.098 227.373L145.518 227.027L94.9099 197.815L94.3031 198.154L43.6947 227.373L43.6947 286.482L44.2779 286.828L94.9099 316.036L95.5128 315.701L146.098 286.482ZM143.733 228.737L143.733 285.11L94.9139 313.293L46.0511 285.11L46.0511 228.737L94.9139 200.55L143.733 228.737Z" fill="#363131"/>
<path d="M242.334 211.99L242.334 177.975L242.007 177.774L212.886 160.967L212.539 161.164L183.419 177.975L183.419 211.99L183.753 212.191L212.886 228.993L213.233 228.8L242.334 211.99ZM240.97 178.763L240.97 211.201L212.882 227.417L184.778 211.201L184.778 178.763L212.882 162.548L240.97 178.763Z" fill="#363131"/>
<path d="M119.456 126.231L119.456 97.4655L119.172 97.296L94.5396 83.0825L94.2479 83.244L69.6156 97.4655L69.6156 126.231L69.8993 126.401L94.5396 140.618L94.8351 140.453L119.456 126.231ZM118.301 98.1275L118.301 125.565L94.5396 139.283L70.7702 125.565L70.7702 98.1275L94.5396 84.4104L118.301 98.1275Z" fill="#363131"/>
<path d="M121.761 399.532L121.761 366.668L121.438 366.475L93.3061 350.24L92.9672 350.425L64.8357 366.668L64.8357 399.532L65.1588 399.725L93.3061 415.964L93.6411 415.775L121.761 399.532ZM120.445 367.432L120.445 398.771L93.3061 414.439L66.1518 398.771L66.1518 367.432L93.3061 351.761L120.445 367.432Z" fill="#363131"/>
<path d="M36.0579 456.946L36.0579 424.082L35.7387 423.888L7.60323 407.649L7.26433 407.839L-20.8672 424.081L-20.8672 456.946L-20.5441 457.139L7.60322 473.374L7.93818 473.189L36.0579 456.946ZM34.7339 424.842L34.7339 456.181L7.59533 471.853L-19.5589 456.181L-19.5589 424.842L7.59534 409.174L34.7339 424.842Z" fill="#363131"/>
<path d="M-147.871 448.024L-147.871 411.377L-148.23 411.16L-179.612 393.034L-180.006 393.243L-211.389 411.369L-211.389 448.016L-211.026 448.233L-179.632 466.36L-179.238 466.151L-147.871 448.024ZM-149.341 412.216L-149.341 447.173L-179.612 464.653L-209.899 447.173L-209.899 412.216L-179.612 394.74L-149.341 412.216Z" fill="#363131"/>
<path d="M-260.448 254.193L-260.448 233.674L-260.653 233.552L-278.22 223.413L-278.429 223.531L-296 233.678L-296 254.197L-295.799 254.319L-278.22 264.458L-278.011 264.344L-260.448 254.193ZM-261.272 234.147L-261.272 253.72L-278.216 263.504L-295.161 253.72L-295.161 234.147L-278.216 224.363L-261.272 234.147Z" fill="#363131"/>
<path d="M-166.277 119.371L-166.277 90.0336L-166.569 89.8602L-191.686 75.3669L-191.985 75.5324L-217.102 90.0375L-217.102 119.375L-216.815 119.548L-191.686 134.042L-191.386 133.876L-166.277 119.371ZM-167.459 90.7114L-167.459 118.689L-191.69 132.678L-215.928 118.689L-215.928 90.7114L-191.69 76.7224L-167.459 90.7114Z" fill="#363131"/>
<path d="M-80.9369 48.0431L-80.9369 16.0144L-81.2521 15.8252L-108.674 8.18826e-06L-109.001 0.181275L-136.424 16.0144L-136.424 48.0431L-136.108 48.2323L-108.674 64.0575L-108.347 63.8762L-80.9369 48.0431ZM-82.2215 16.7552L-82.2215 47.2984L-108.674 62.5719L-135.139 47.2984L-135.139 16.7552L-108.674 1.4856L-82.2215 16.7552Z" fill="#363131"/>
<path d="M-137.945 322.758L-137.945 274.577L-138.418 274.293L-179.667 250.485L-180.16 250.761L-221.402 274.577L-221.402 322.758L-220.925 323.042L-179.667 346.87L-179.175 346.595L-137.945 322.758ZM-139.876 275.692L-139.876 321.651L-179.675 344.624L-219.475 321.651L-219.475 275.692L-179.675 252.719L-139.876 275.692Z" fill="#363131"/>
<path d="M-105.869 150.095L-167.065 117.941L-167.893 119.477L-106.696 151.632L-105.869 150.095Z" fill="#363131"/>
<path d="M-219.829 275.011L-261.244 253.219L-261.914 254.441L-220.499 276.232L-219.829 275.011Z" fill="#363131"/>
<path d="M-49.6489 319.826L-49.6489 250.713L-47.8639 250.713L-47.8639 319.826L-49.6489 319.826Z" fill="#363131"/>
<path d="M71.1012 126.373L70.4313 124.758L8.68295 150.056L9.35285 151.672L71.1012 126.373Z" fill="#363131"/>
<path d="M93.6569 199.506L93.6569 139.279L95.4419 139.279L95.4419 199.506L93.6569 199.506Z" fill="#363131"/>
<path d="M185.101 212.001L184.431 210.386L144.277 227.724L144.947 229.34L185.101 212.001Z" fill="#363131"/>
<path d="M-94.3623 347.359L-138.733 321.351L-139.639 322.849L-95.2292 348.896L-94.3623 347.359Z" fill="#363131"/>
<path d="M-180.979 394.189L-180.979 345.164L-179.194 345.164L-179.194 394.189L-180.979 394.189Z" fill="#363131"/>
</g>
<g opacity="0.5">
<path d="M1461.8 245.673L1461.8 175.851L1461.11 175.457L1401.35 140.961L1400.63 141.355L1340.86 175.851L1340.86 245.673L1341.55 246.067L1401.35 280.563L1402.06 280.169L1461.8 245.673ZM1459 177.478L1459 244.073L1401.35 277.359L1343.66 244.054L1343.66 177.459L1401.35 144.173L1459 177.478Z" fill="#363131"/>
<path d="M1449.73 429.338L1449.73 373.457L1449.19 373.126L1401.34 345.515L1400.77 345.834L1352.93 373.457L1352.93 429.338L1353.48 429.669L1401.34 457.281L1401.92 456.961L1449.73 429.338ZM1447.5 374.754L1447.5 428.046L1401.34 454.692L1355.17 428.046L1355.17 374.754L1401.34 348.108L1447.5 374.754Z" fill="#363131"/>
<path d="M1596.07 313.104L1596.07 253.996L1595.49 253.649L1544.88 224.438L1544.28 224.777L1493.67 253.996L1493.67 313.104L1494.25 313.455L1544.88 342.662L1545.49 342.327L1596.07 313.104ZM1593.71 255.363L1593.71 311.737L1544.88 339.919L1496.04 311.737L1496.04 255.363L1544.88 227.176L1593.71 255.363Z" fill="#363131"/>
<path d="M1692.32 238.616L1692.32 204.617L1691.99 204.416L1662.87 187.609L1662.52 187.806L1633.39 204.617L1633.39 238.632L1633.72 238.833L1662.85 255.635L1663.2 255.442L1692.32 238.616ZM1690.94 205.405L1690.94 237.84L1662.85 254.059L1634.75 237.84L1634.75 205.405L1662.85 189.19L1690.94 205.405Z" fill="#363131"/>
<path d="M1569.44 152.858L1569.44 124.092L1569.16 123.922L1544.53 109.705L1544.24 109.87L1519.6 124.092L1519.6 152.858L1519.89 153.027L1544.53 167.245L1544.82 167.079L1569.44 152.858ZM1568.29 124.754L1568.29 152.208L1544.53 165.925L1520.76 152.208L1520.76 124.754L1544.53 111.037L1568.29 124.754Z" fill="#363131"/>
<path d="M1571.74 426.158L1571.74 393.294L1571.42 393.101L1543.29 376.866L1542.95 377.051L1514.82 393.294L1514.82 426.158L1515.14 426.351L1543.29 442.59L1543.62 442.401L1571.74 426.158ZM1570.42 394.059L1570.42 425.394L1543.29 441.065L1516.13 425.394L1516.13 394.059L1543.29 378.387L1570.42 394.059Z" fill="#363131"/>
<path d="M1486.03 483.572L1486.03 450.708L1485.71 450.515L1457.58 434.276L1457.24 434.465L1429.11 450.708L1429.11 483.572L1429.43 483.765L1457.58 500L1457.91 499.815L1486.03 483.572ZM1484.71 451.468L1484.71 482.819L1457.58 498.491L1430.42 482.819L1430.42 451.48L1457.58 435.813L1484.71 451.468Z" fill="#363131"/>
<path d="M1302.1 474.651L1302.1 438.003L1301.74 437.787L1270.36 419.66L1269.99 419.869L1238.6 437.996L1238.6 474.643L1238.96 474.859L1270.36 492.986L1270.75 492.777L1302.1 474.651ZM1300.63 438.843L1300.63 473.799L1270.36 491.276L1240.07 473.799L1240.07 438.843L1270.36 421.366L1300.63 438.843Z" fill="#363131"/>
<path d="M1189.51 280.819L1189.51 260.301L1189.32 260.178L1171.75 250.039L1171.54 250.154L1153.97 260.301L1153.97 280.819L1154.17 280.941L1171.75 291.08L1171.96 290.966L1189.51 280.819ZM1188.72 260.773L1188.72 280.346L1171.78 290.131L1154.83 280.346L1154.83 260.773L1171.78 250.989L1188.72 260.773Z" fill="#363131"/>
<path d="M1283.69 145.997L1283.69 116.66L1283.4 116.486L1258.28 101.989L1257.99 102.163L1232.87 116.668L1232.87 146.005L1233.16 146.178L1258.29 160.672L1258.59 160.483L1283.69 145.997ZM1282.51 117.338L1282.51 145.316L1258.27 159.304L1234.04 145.316L1234.04 117.338L1258.27 103.349L1282.51 117.338Z" fill="#363131"/>
<path d="M1369.04 74.6694L1369.04 42.6604L1368.72 42.4712L1341.3 26.646L1340.97 26.8273L1313.55 42.6604L1313.55 74.6891L1313.86 74.8783L1341.3 90.7035L1341.61 90.5025L1369.04 74.6694ZM1367.75 43.3815L1367.75 73.9247L1341.3 89.1982L1314.82 73.9247L1314.82 43.3815L1341.28 28.1119L1367.75 43.3815Z" fill="#363131"/>
<path d="M1312.03 349.385L1312.03 301.203L1311.55 300.92L1270.29 277.123L1269.8 277.399L1228.54 301.215L1228.54 349.396L1229.02 349.68L1270.29 373.489L1270.78 373.213L1312.03 349.385ZM1310.09 302.319L1310.09 348.269L1270.29 371.243L1230.49 348.269L1230.49 302.319L1270.29 279.345L1310.09 302.319Z" fill="#363131"/>
<path d="M1344.09 176.733L1282.93 144.539L1282.11 146.076L1343.26 178.27L1344.09 176.733Z" fill="#363131"/>
<path d="M1230.17 301.649L1188.76 279.818L1188.05 281.079L1229.46 302.87L1230.17 301.649Z" fill="#363131"/>
<path d="M1400.32 346.453L1400.32 277.34L1402.11 277.34L1402.11 346.453L1400.32 346.453Z" fill="#363131"/>
<path d="M1521.1 153.011L1520.39 151.396L1458.64 176.694L1459.35 178.31L1521.1 153.011Z" fill="#363131"/>
<path d="M1543.63 226.132L1543.63 165.905L1545.41 165.905L1545.41 226.132L1543.63 226.132Z" fill="#363131"/>
<path d="M1635.1 238.639L1634.39 237.024L1594.24 254.362L1594.91 255.978L1635.1 238.639Z" fill="#363131"/>
<path d="M1355.6 373.997L1311.23 347.95L1310.32 349.487L1354.73 375.495L1355.6 373.997Z" fill="#363131"/>
<path d="M1268.99 420.815L1268.99 371.79L1270.77 371.79L1270.77 420.815L1268.99 420.815Z" fill="#363131"/>
<path d="M1005.83 219.047L1005.83 149.232L1005.14 148.838L945.376 114.327L944.662 114.721L884.904 149.232L884.904 219.047L885.59 219.441L945.376 253.952L946.089 253.558L1005.83 219.047ZM1003.03 150.852L1003.03 217.447L945.376 250.721L887.694 217.427L887.694 150.832L945.376 117.566L1003.03 150.852Z" fill="#363131"/>
<path d="M993.765 402.712L993.765 346.831L993.214 346.5L945.372 318.893L944.8 319.208L896.958 346.831L896.958 402.712L897.506 403.043L945.372 430.654L945.943 430.335L993.765 402.712ZM991.523 348.127L991.523 401.419L945.372 428.046L899.2 401.404L899.2 348.127L945.372 321.481L991.523 348.127Z" fill="#363131"/>
<path d="M1140.1 286.482L1140.1 227.373L1139.52 227.027L1088.91 197.815L1088.3 198.154L1037.69 227.373L1037.69 286.482L1038.28 286.828L1088.91 316.036L1089.51 315.701L1140.1 286.482ZM1137.73 228.737L1137.73 285.11L1088.91 313.293L1040.05 285.11L1040.05 228.737L1088.91 200.55L1137.73 228.737Z" fill="#363131"/>
<path d="M1236.33 211.99L1236.33 177.975L1236.01 177.774L1206.89 160.967L1206.54 161.164L1177.42 177.975L1177.42 211.99L1177.75 212.191L1206.89 228.993L1207.23 228.8L1236.33 211.99ZM1234.97 178.763L1234.97 211.201L1206.88 227.417L1178.78 211.201L1178.78 178.763L1206.88 162.548L1234.97 178.763Z" fill="#363131"/>
<path d="M1113.46 126.231L1113.46 97.4655L1113.17 97.296L1088.54 83.0825L1088.25 83.244L1063.62 97.4655L1063.62 126.231L1063.9 126.401L1088.54 140.618L1088.84 140.453L1113.46 126.231ZM1112.3 98.1275L1112.3 125.565L1088.54 139.283L1064.77 125.565L1064.77 98.1275L1088.54 84.4104L1112.3 98.1275Z" fill="#363131"/>
<path d="M1115.76 399.532L1115.76 366.668L1115.44 366.475L1087.31 350.24L1086.97 350.425L1058.84 366.668L1058.84 399.532L1059.16 399.725L1087.31 415.964L1087.64 415.775L1115.76 399.532ZM1114.44 367.432L1114.44 398.771L1087.31 414.439L1060.15 398.771L1060.15 367.432L1087.31 351.761L1114.44 367.432Z" fill="#363131"/>
<path d="M1030.06 456.946L1030.06 424.082L1029.74 423.888L1001.6 407.649L1001.26 407.839L973.133 424.081L973.133 456.946L973.456 457.139L1001.6 473.374L1001.94 473.189L1030.06 456.946ZM1028.73 424.842L1028.73 456.181L1001.6 471.853L974.441 456.181L974.441 424.842L1001.6 409.174L1028.73 424.842Z" fill="#363131"/>
<path d="M846.129 448.024L846.129 411.377L845.77 411.16L814.388 393.034L813.994 393.243L782.611 411.369L782.611 448.016L782.974 448.233L814.368 466.36L814.762 466.151L846.129 448.024ZM844.659 412.216L844.659 447.173L814.388 464.653L784.101 447.173L784.101 412.216L814.388 394.74L844.659 412.216Z" fill="#363131"/>
<path d="M733.552 254.193L733.552 233.674L733.347 233.552L715.78 223.413L715.571 223.531L698 233.678L698 254.197L698.201 254.319L715.78 264.458L715.989 264.344L733.552 254.193ZM732.728 234.147L732.728 253.72L715.784 263.504L698.839 253.72L698.839 234.147L715.784 224.363L732.728 234.147Z" fill="#363131"/>
<path d="M827.723 119.371L827.723 90.0336L827.431 89.8602L802.314 75.3669L802.015 75.5324L776.898 90.0375L776.898 119.375L777.185 119.548L802.314 134.042L802.614 133.876L827.723 119.371ZM826.541 90.7114L826.541 118.689L802.31 132.678L778.072 118.689L778.072 90.7114L802.31 76.7224L826.541 90.7114Z" fill="#363131"/>
<path d="M913.063 48.0431L913.063 16.0144L912.748 15.8252L885.326 8.18826e-06L884.999 0.181275L857.576 16.0144L857.576 48.0431L857.892 48.2323L885.326 64.0575L885.653 63.8762L913.063 48.0431ZM911.779 16.7552L911.779 47.2984L885.326 62.5719L858.861 47.2984L858.861 16.7552L885.326 1.4856L911.779 16.7552Z" fill="#363131"/>
<path d="M856.055 322.758L856.055 274.577L855.582 274.293L814.333 250.485L813.84 250.761L772.598 274.577L772.598 322.758L773.075 323.042L814.333 346.87L814.825 346.595L856.055 322.758ZM854.124 275.692L854.124 321.651L814.325 344.624L774.525 321.651L774.525 275.692L814.325 252.719L854.124 275.692Z" fill="#363131"/>
<path d="M888.131 150.095L826.935 117.941L826.107 119.477L887.304 151.632L888.131 150.095Z" fill="#363131"/>
<path d="M774.171 275.011L732.756 253.219L732.086 254.441L773.501 276.232L774.171 275.011Z" fill="#363131"/>
<path d="M944.351 319.826L944.351 250.713L946.136 250.713L946.136 319.826L944.351 319.826Z" fill="#363131"/>
<path d="M1065.1 126.373L1064.43 124.758L1002.68 150.056L1003.35 151.672L1065.1 126.373Z" fill="#363131"/>
<path d="M1087.66 199.506L1087.66 139.279L1089.44 139.279L1089.44 199.506L1087.66 199.506Z" fill="#363131"/>
<path d="M1179.1 212.001L1178.43 210.386L1138.28 227.724L1138.95 229.34L1179.1 212.001Z" fill="#363131"/>
<path d="M899.638 347.359L855.267 321.351L854.361 322.849L898.771 348.896L899.638 347.359Z" fill="#363131"/>
<path d="M813.021 394.189L813.021 345.164L814.806 345.164L814.806 394.189L813.021 394.189Z" fill="#363131"/>
</g>
</svg>
