<svg width="290" height="995" viewBox="0 0 290 995" fill="none" xmlns="http://www.w3.org/2000/svg">
<g opacity="0.5">
<path d="M245.673 763.8H175.851L175.457 763.114L140.961 703.348L141.355 702.635L175.851 642.865H245.673L246.067 643.55L280.563 703.348L280.169 704.061L245.673 763.8ZM177.478 761.002H244.073L277.359 703.348L244.054 645.662H177.459L144.173 703.348L177.478 761.002Z" fill="#363131"/>
<path d="M429.338 751.734H373.457L373.126 751.186L345.515 703.344L345.834 702.773L373.457 654.93H429.338L429.669 655.478L457.281 703.344L456.961 703.915L429.338 751.734ZM374.754 749.496H428.046L454.692 703.344L428.046 657.169H374.754L348.108 703.344L374.754 749.496Z" fill="#363131"/>
<path d="M313.104 898.07H253.996L253.649 897.491L224.438 846.878L224.777 846.275L253.996 795.667H313.104L313.455 796.246L342.662 846.878L342.327 847.485L313.104 898.07ZM255.363 895.706H311.737L339.919 846.882L311.737 798.039H255.363L227.176 846.882L255.363 895.706Z" fill="#363131"/>
<path d="M238.616 994.322H204.617L204.416 993.987L187.609 964.87L187.806 964.519L204.617 935.387H238.632L238.833 935.718L255.635 964.854L255.442 965.201L238.616 994.322ZM205.405 992.943H237.84L254.059 964.854L237.84 936.75H205.405L189.19 964.854L205.405 992.943Z" fill="#363131"/>
<path d="M152.858 871.444H124.092L123.922 871.16L109.705 846.528L109.87 846.236L124.092 821.604H152.858L153.027 821.887L167.245 846.528L167.079 846.823L152.858 871.444ZM124.754 870.289H152.208L165.925 846.528L152.208 822.758H124.754L111.037 846.528L124.754 870.289Z" fill="#363131"/>
<path d="M426.158 873.741H393.294L393.101 873.418L376.866 845.286L377.051 844.947L393.294 816.816H426.158L426.351 817.139L442.59 845.286L442.401 845.621L426.158 873.741ZM394.058 872.425H425.394L441.065 845.286L425.394 818.132H394.058L378.387 845.286L394.058 872.425Z" fill="#363131"/>
<path d="M483.572 788.03H450.708L450.515 787.707L434.276 759.576L434.465 759.237L450.708 731.105H483.572L483.765 731.428L500 759.576L499.815 759.911L483.572 788.03ZM451.468 786.714H482.819L498.491 759.576L482.819 732.421H451.48L435.812 759.576L451.468 786.714Z" fill="#363131"/>
<path d="M474.65 604.101H438.003L437.787 603.743L419.66 572.36L419.869 571.986L437.996 540.603H474.643L474.859 540.962L492.986 572.36L492.777 572.754L474.65 604.101ZM438.843 602.632H473.799L491.276 572.36L473.799 542.073H438.843L421.366 572.36L438.843 602.632Z" fill="#363131"/>
<path d="M280.819 491.508H260.301L260.178 491.319L250.039 473.752L250.154 473.539L260.301 455.972H280.819L280.941 456.173L291.08 473.752L290.966 473.961L280.819 491.508ZM260.773 490.72H280.346L290.131 473.776L280.346 456.831H260.773L250.989 473.776L260.773 490.72Z" fill="#363131"/>
<path d="M145.997 585.687H116.66L116.486 585.4L101.989 560.282L102.163 559.987L116.668 534.87H146.005L146.178 535.158L160.672 560.286L160.483 560.586L145.997 585.687ZM117.338 584.505H145.315L159.304 560.275L145.315 536.036H117.338L103.349 560.275L117.338 584.505Z" fill="#363131"/>
<path d="M74.6694 671.036H42.6603L42.4712 670.72L26.646 643.298L26.8272 642.971L42.6603 615.549H74.6891L74.8782 615.864L90.7035 643.298L90.5025 643.613L74.6694 671.036ZM43.3815 669.751H73.9246L89.1982 643.298L73.9246 616.818H43.3815L28.1119 643.282L43.3815 669.751Z" fill="#363131"/>
<path d="M349.385 614.028H301.203L300.92 613.555L277.123 572.289L277.399 571.797L301.215 530.543H349.396L349.68 531.016L373.489 572.289L373.213 572.782L349.385 614.028ZM302.319 612.089H348.269L371.243 572.289L348.269 532.49H302.319L279.345 572.289L302.319 612.089Z" fill="#363131"/>
<path d="M176.733 646.092L144.539 584.935L146.076 584.107L178.27 645.264L176.733 646.092Z" fill="#363131"/>
<path d="M301.649 532.171L279.818 490.756L281.079 490.046L302.87 531.461L301.649 532.171Z" fill="#363131"/>
<path d="M346.453 702.323H277.34V704.108H346.453V702.323Z" fill="#363131"/>
<path d="M153.011 823.101L151.396 822.392L176.694 760.643L178.31 761.353L153.011 823.101Z" fill="#363131"/>
<path d="M226.132 845.629H165.905V847.41H226.132V845.629Z" fill="#363131"/>
<path d="M238.639 937.101L237.024 936.392L254.362 896.238L255.978 896.907L238.639 937.101Z" fill="#363131"/>
<path d="M373.997 657.598L347.95 613.228L349.487 612.321L375.495 656.731L373.997 657.598Z" fill="#363131"/>
<path d="M420.815 570.989H371.79V572.774H420.815V570.989Z" fill="#363131"/>
<path d="M219.047 307.828H149.232L148.838 307.142L114.327 247.376L114.721 246.662L149.232 186.904H219.047L219.441 187.59L253.952 247.376L253.558 248.089L219.047 307.828ZM150.852 305.03H217.447L250.721 247.376L217.427 189.694H150.832L117.566 247.376L150.852 305.03Z" fill="#363131"/>
<path d="M402.712 295.766H346.831L346.5 295.214L318.893 247.372L319.208 246.8L346.831 198.958H402.712L403.043 199.506L430.654 247.372L430.335 247.943L402.712 295.766ZM348.127 293.523H401.419L428.046 247.372L401.404 201.2H348.127L321.481 247.372L348.127 293.523Z" fill="#363131"/>
<path d="M286.482 442.098H227.373L227.027 441.518L197.815 390.91L198.154 390.303L227.373 339.695H286.482L286.828 340.278L316.036 390.91L315.701 391.513L286.482 442.098ZM228.737 439.733H285.11L313.293 390.914L285.11 342.051H228.737L200.55 390.914L228.737 439.733Z" fill="#363131"/>
<path d="M211.99 538.334H177.975L177.774 538.007L160.967 508.886L161.164 508.539L177.975 479.419H211.99L212.19 479.754L228.993 508.886L228.8 509.233L211.99 538.334ZM178.763 536.97H211.201L227.417 508.882L211.201 480.778H178.763L162.547 508.882L178.763 536.97Z" fill="#363131"/>
<path d="M126.231 415.456H97.4654L97.296 415.172L83.0825 390.54L83.244 390.248L97.4654 365.616H126.231L126.401 365.899L140.618 390.54L140.453 390.835L126.231 415.456ZM98.1274 414.301H125.565L139.283 390.54L125.565 366.77H98.1274L84.4104 390.54L98.1274 414.301Z" fill="#363131"/>
<path d="M399.532 417.761H366.668L366.475 417.438L350.24 389.306L350.425 388.967L366.668 360.836H399.532L399.725 361.159L415.964 389.306L415.775 389.641L399.532 417.761ZM367.432 416.445H398.771L414.439 389.306L398.771 362.152H367.432L351.761 389.306L367.432 416.445Z" fill="#363131"/>
<path d="M456.946 332.058H424.081L423.888 331.739L407.649 303.603L407.839 303.264L424.081 275.133H456.946L457.139 275.456L473.374 303.603L473.189 303.938L456.946 332.058ZM424.842 330.734H456.181L471.853 303.595L456.181 276.441H424.842L409.174 303.595L424.842 330.734Z" fill="#363131"/>
<path d="M448.024 148.129H411.377L411.16 147.77L393.034 116.388L393.243 115.994L411.369 84.6114H448.016L448.233 84.9739L466.36 116.368L466.151 116.762L448.024 148.129ZM412.216 146.659H447.173L464.653 116.388L447.173 86.1009H412.216L394.74 116.388L412.216 146.659Z" fill="#363131"/>
<path d="M254.193 35.5516H233.674L233.552 35.3467L223.413 17.7797L223.531 17.5709L233.678 0H254.197L254.319 0.200968L264.458 17.7797L264.344 17.9886L254.193 35.5516ZM234.147 34.728H253.72L263.504 17.7837L253.72 0.839339H234.147L224.363 17.7837L234.147 34.728Z" fill="#363131"/>
<path d="M119.371 129.723H90.0336L89.8602 129.431L75.3669 104.314L75.5324 104.015L90.0375 78.8976H119.375L119.548 79.1853L134.042 104.314L133.876 104.614L119.371 129.723ZM90.7114 128.541H118.689L132.678 104.31L118.689 80.0719H90.7114L76.7224 104.31L90.7114 128.541Z" fill="#363131"/>
<path d="M48.0431 215.063H16.0144L15.8252 214.748L0 187.326L0.181267 186.999L16.0144 159.576H48.0431L48.2323 159.892L64.0575 187.326L63.8762 187.653L48.0431 215.063ZM16.7552 213.779H47.2984L62.5719 187.326L47.2984 160.861H16.7552L1.48559 187.326L16.7552 213.779Z" fill="#363131"/>
<path d="M322.758 158.055H274.577L274.293 157.582L250.485 116.333L250.761 115.84L274.577 74.5985H322.758L323.042 75.0753L346.87 116.333L346.595 116.825L322.758 158.055ZM275.692 156.124H321.651L344.624 116.325L321.651 76.5254H275.692L252.719 116.325L275.692 156.124Z" fill="#363131"/>
<path d="M150.095 190.131L117.941 128.935L119.477 128.107L151.632 189.304L150.095 190.131Z" fill="#363131"/>
<path d="M275.011 76.1707L253.219 34.7556L254.441 34.0857L276.232 75.5008L275.011 76.1707Z" fill="#363131"/>
<path d="M319.826 246.351H250.713V248.136H319.826V246.351Z" fill="#363131"/>
<path d="M126.373 367.101L124.758 366.431L150.056 304.683L151.672 305.353L126.373 367.101Z" fill="#363131"/>
<path d="M199.506 389.657H139.279V391.442H199.506V389.657Z" fill="#363131"/>
<path d="M212.001 481.101L210.386 480.431L227.724 440.277L229.34 440.947L212.001 481.101Z" fill="#363131"/>
<path d="M347.359 201.638L321.351 157.267L322.849 156.361L348.896 200.771L347.359 201.638Z" fill="#363131"/>
<path d="M394.189 115.021H345.164V116.806H394.189V115.021Z" fill="#363131"/>
</g>
</svg>
