<svg width="310" height="995" viewBox="0 0 310 995" fill="none" xmlns="http://www.w3.org/2000/svg">
<g opacity="0.5">
<path d="M64.3267 763.8H134.149L134.543 763.114L169.039 703.348L168.645 702.635L134.149 642.865H64.3267L63.9326 643.55L29.4371 703.348L29.8312 704.061L64.3267 763.8ZM132.522 761.002H65.9266L32.6408 703.348L65.9463 645.662H132.541L165.827 703.348L132.522 761.002Z" fill="#363131"/>
<path d="M-119.338 751.734H-63.4573L-63.1263 751.186L-35.5149 703.344L-35.834 702.773L-63.4573 654.93H-119.338L-119.669 655.478L-147.281 703.344L-146.961 703.915L-119.338 751.734ZM-64.7537 749.496H-118.046L-144.692 703.344L-118.046 657.169H-64.7537L-38.1078 703.344L-64.7537 749.496Z" fill="#363131"/>
<path d="M-3.10391 898.07H56.0043L56.351 897.491L85.5623 846.878L85.2234 846.275L56.0043 795.667H-3.10391L-3.45462 796.246L-32.662 846.878L-32.327 847.485L-3.10391 898.07ZM54.6369 895.706H-1.73654L-29.9193 846.882L-1.73654 798.039H54.6369L82.8236 846.882L54.6369 895.706Z" fill="#363131"/>
<path d="M71.3842 994.322H105.383L105.584 993.987L122.391 964.87L122.194 964.519L105.383 935.387H71.3685L71.1675 935.718L54.365 964.854L54.5581 965.201L71.3842 994.322ZM104.595 992.943H72.1605L55.9412 964.854L72.1605 936.75H104.595L120.81 964.854L104.595 992.943Z" fill="#363131"/>
<path d="M157.142 871.444H185.908L186.078 871.16L200.295 846.528L200.13 846.236L185.908 821.604H157.142L156.973 821.887L142.755 846.528L142.921 846.823L157.142 871.444ZM185.246 870.289H157.792L144.075 846.528L157.792 822.758H185.246L198.963 846.528L185.246 870.289Z" fill="#363131"/>
<path d="M-116.158 873.741H-83.294L-83.1009 873.418L-66.8659 845.286L-67.0511 844.947L-83.294 816.816H-116.158L-116.351 817.139L-132.59 845.286L-132.401 845.621L-116.158 873.741ZM-84.0585 872.425H-115.394L-131.065 845.286L-115.394 818.132H-84.0585L-68.3869 845.286L-84.0585 872.425Z" fill="#363131"/>
<path d="M-173.572 788.03H-140.708L-140.515 787.707L-124.276 759.576L-124.465 759.237L-140.708 731.105H-173.572L-173.765 731.428L-190 759.576L-189.815 759.911L-173.572 788.03ZM-141.468 786.714H-172.819L-188.491 759.576L-172.819 732.421H-141.48L-125.812 759.576L-141.468 786.714Z" fill="#363131"/>
<path d="M-164.65 604.101H-128.003L-127.787 603.743L-109.66 572.36L-109.869 571.986L-127.996 540.603H-164.643L-164.859 540.962L-182.986 572.36L-182.777 572.754L-164.65 604.101ZM-128.843 602.632H-163.799L-181.276 572.36L-163.799 542.073H-128.843L-111.366 572.36L-128.843 602.632Z" fill="#363131"/>
<path d="M29.181 491.508H49.6994L49.8216 491.319L59.9606 473.752L59.8463 473.539L49.6994 455.972H29.181L29.0588 456.173L18.9198 473.752L19.0341 473.961L29.181 491.508ZM49.2265 490.72H29.6538L19.8695 473.776L29.6538 456.831H49.2265L59.0109 473.776L49.2265 490.72Z" fill="#363131"/>
<path d="M164.003 585.687H193.34L193.514 585.4L208.011 560.282L207.837 559.987L193.332 534.87H163.995L163.822 535.158L149.328 560.286L149.517 560.586L164.003 585.687ZM192.662 584.505H164.685L150.696 560.275L164.685 536.036H192.662L206.651 560.275L192.662 584.505Z" fill="#363131"/>
<path d="M235.331 671.036H267.34L267.529 670.72L283.354 643.298L283.173 642.971L267.34 615.549H235.311L235.122 615.864L219.297 643.298L219.497 643.613L235.331 671.036ZM266.619 669.751H236.075L220.802 643.298L236.075 616.818H266.619L281.888 643.282L266.619 669.751Z" fill="#363131"/>
<path d="M-39.3845 614.028H8.79654L9.08026 613.555L32.8772 572.289L32.6014 571.797L8.7847 530.543H-39.3963L-39.6801 531.016L-63.4889 572.289L-63.213 572.782L-39.3845 614.028ZM7.68134 612.089H-38.2693L-61.2427 572.289L-38.2693 532.49H7.68134L30.6547 572.289L7.68134 612.089Z" fill="#363131"/>
<path d="M133.267 646.092L165.461 584.935L163.924 584.107L131.73 645.264L133.267 646.092Z" fill="#363131"/>
<path d="M8.35126 532.171L30.1819 490.756L28.9209 490.046L7.1297 531.461L8.35126 532.171Z" fill="#363131"/>
<path d="M-36.4527 702.323H32.6605V704.108H-36.4527V702.323Z" fill="#363131"/>
<path d="M156.989 823.101L158.604 822.392L133.306 760.643L131.69 761.353L156.989 823.101Z" fill="#363131"/>
<path d="M83.8679 845.629H144.095V847.41H83.8679V845.629Z" fill="#363131"/>
<path d="M71.3606 937.101L72.9762 936.392L55.6378 896.238L54.0222 896.907L71.3606 937.101Z" fill="#363131"/>
<path d="M-63.9972 657.598L-37.9501 613.228L-39.487 612.321L-65.4946 656.731L-63.9972 657.598Z" fill="#363131"/>
<path d="M-110.815 570.989H-61.7905V572.774H-110.815V570.989Z" fill="#363131"/>
<path d="M90.953 307.828H160.768L161.162 307.142L195.673 247.376L195.279 246.662L160.768 186.904H90.953L90.5589 187.59L56.0476 247.376L56.4417 248.089L90.953 307.828ZM159.148 305.03H92.5528L59.2789 247.376L92.5725 189.694H159.168L192.434 247.376L159.148 305.03Z" fill="#363131"/>
<path d="M-92.7119 295.766H-36.831L-36.5 295.214L-8.89255 247.372L-9.20779 246.8L-36.831 198.958H-92.7119L-93.0429 199.506L-120.654 247.372L-120.335 247.943L-92.7119 295.766ZM-38.1274 293.523H-91.4194L-118.046 247.372L-91.4036 201.2H-38.1274L-11.4815 247.372L-38.1274 293.523Z" fill="#363131"/>
<path d="M23.5184 442.098H82.6266L82.9734 441.518L112.185 390.91L111.846 390.303L82.6266 339.695H23.5184L23.1716 340.278L-6.03571 390.91L-5.70074 391.513L23.5184 442.098ZM81.2632 439.733H24.8897L-3.29306 390.914L24.8897 342.051H81.2632L109.45 390.914L81.2632 439.733Z" fill="#363131"/>
<path d="M98.0105 538.334H132.025L132.226 538.007L149.033 508.886L148.836 508.539L132.025 479.419H98.0105L97.8095 479.754L81.007 508.886L81.2001 509.233L98.0105 538.334ZM131.237 536.97H98.7986L82.5832 508.882L98.7986 480.778H131.237L147.453 508.882L131.237 536.97Z" fill="#363131"/>
<path d="M183.769 415.456H212.535L212.704 415.172L226.918 390.54L226.756 390.248L212.535 365.616H183.769L183.599 365.899L169.382 390.54L169.547 390.835L183.769 415.456ZM211.873 414.301H184.435L170.717 390.54L184.435 366.77H211.873L225.59 390.54L211.873 414.301Z" fill="#363131"/>
<path d="M-89.5319 417.761H-56.6677L-56.4746 417.438L-40.2396 389.306L-40.4248 388.967L-56.6677 360.836H-89.5319L-89.725 361.159L-105.964 389.306L-105.775 389.641L-89.5319 417.761ZM-57.4322 416.445H-88.7713L-104.439 389.306L-88.7713 362.152H-57.4322L-41.7607 389.306L-57.4322 416.445Z" fill="#363131"/>
<path d="M-146.946 332.058H-114.081L-113.888 331.739L-97.6494 303.603L-97.8386 303.264L-114.081 275.133H-146.946L-147.139 275.456L-163.374 303.603L-163.189 303.938L-146.946 332.058ZM-114.842 330.734H-146.181L-161.853 303.595L-146.181 276.441H-114.842L-99.1744 303.595L-114.842 330.734Z" fill="#363131"/>
<path d="M-138.024 148.129H-101.377L-101.16 147.77L-83.0339 116.388L-83.2428 115.994L-101.369 84.6114H-138.016L-138.233 84.9739L-156.36 116.368L-156.151 116.762L-138.024 148.129ZM-102.216 146.659H-137.173L-154.653 116.388L-137.173 86.1009H-102.216L-84.7402 116.388L-102.216 146.659Z" fill="#363131"/>
<path d="M55.8072 35.5516H76.3257L76.4478 35.3467L86.5868 17.7797L86.4686 17.5709L76.3217 0H55.8033L55.6811 0.200968L45.5421 17.7797L45.6564 17.9886L55.8072 35.5516ZM75.8528 34.728H56.2801L46.4957 17.7837L56.2801 0.839339H75.8528L85.6372 17.7837L75.8528 34.728Z" fill="#363131"/>
<path d="M190.629 129.723H219.966L220.14 129.431L234.633 104.314L234.468 104.015L219.962 78.8976H190.625L190.452 79.1853L175.958 104.314L176.124 104.614L190.629 129.723ZM219.289 128.541H191.311L177.322 104.31L191.311 80.0719H219.289L233.278 104.31L219.289 128.541Z" fill="#363131"/>
<path d="M261.957 215.063H293.986L294.175 214.748L310 187.326L309.819 186.999L293.986 159.576H261.957L261.768 159.892L245.942 187.326L246.124 187.653L261.957 215.063ZM293.245 213.779H262.702L247.428 187.326L262.702 160.861H293.245L308.514 187.326L293.245 213.779Z" fill="#363131"/>
<path d="M-12.7583 158.055H35.4228L35.7065 157.582L59.5153 116.333L59.2395 115.84L35.4228 74.5985H-12.7583L-13.042 75.0753L-36.8705 116.333L-36.5946 116.825L-12.7583 158.055ZM34.3076 156.124H-11.651L-34.6244 116.325L-11.651 76.5254H34.3076L57.281 116.325L34.3076 156.124Z" fill="#363131"/>
<path d="M159.905 190.131L192.059 128.935L190.523 128.107L158.368 189.304L159.905 190.131Z" fill="#363131"/>
<path d="M34.9893 76.1707L56.7806 34.7556L55.559 34.0857L33.7678 75.5008L34.9893 76.1707Z" fill="#363131"/>
<path d="M-9.82645 246.351H59.2867V248.136H-9.82645V246.351Z" fill="#363131"/>
<path d="M183.627 367.101L185.242 366.431L159.944 304.683L158.328 305.353L183.627 367.101Z" fill="#363131"/>
<path d="M110.494 389.657H170.721V391.442H110.494V389.657Z" fill="#363131"/>
<path d="M97.9987 481.101L99.6143 480.431L82.2759 440.277L80.6603 440.947L97.9987 481.101Z" fill="#363131"/>
<path d="M-37.359 201.638L-11.3515 157.267L-12.8489 156.361L-38.8959 200.771L-37.359 201.638Z" fill="#363131"/>
<path d="M-84.1885 115.021H-35.1642V116.806H-84.1885V115.021Z" fill="#363131"/>
</g>
</svg>
