<svg width="36" height="36" viewBox="0 0 36 36" fill="none" xmlns="http://www.w3.org/2000/svg">
<g clip-path="url(#clip0_683_14)">
<path opacity="0.992" fill-rule="evenodd" clip-rule="evenodd" d="M16.418 -0.0351562C17.4727 -0.0351562 18.5273 -0.0351562 19.582 -0.0351562C25.8851 0.730399 30.6312 3.84759 33.8203 9.31641C34.9942 11.5292 35.709 13.8729 35.9648 16.3477C35.9648 17.4023 35.9648 18.457 35.9648 19.5117C35.0871 26.5646 31.4308 31.5919 24.9961 34.5938C23.2253 35.3177 21.3972 35.7747 19.5117 35.9648C18.457 35.9648 17.4023 35.9648 16.3477 35.9648C9.17114 35.0314 4.12037 31.258 1.19531 24.6445C0.564673 23.0011 0.154517 21.3136 -0.0351562 19.582C-0.0351562 18.5039 -0.0351562 17.4258 -0.0351562 16.3477C0.654397 10.4233 3.49033 5.84124 8.47266 2.60156C10.9281 1.12292 13.5765 0.244013 16.418 -0.0351562ZM15.9961 11.4258C18.6512 11.3697 21.2996 11.4752 23.9414 11.7422C25.1149 11.9322 25.9704 12.5532 26.5078 13.6055C27.1172 16.4883 27.1172 19.3711 26.5078 22.2539C26.1653 23.0885 25.5677 23.6628 24.7148 23.9766C24.4647 24.0756 24.2069 24.1459 23.9414 24.1875C19.8363 24.6287 15.7347 24.6052 11.6367 24.1172C10.2506 23.7629 9.4654 22.884 9.28125 21.4805C8.91675 18.871 8.96358 16.2694 9.42188 13.6758C9.79931 12.7595 10.4673 12.1619 11.4258 11.8828C11.6347 11.827 11.8456 11.7801 12.0586 11.7422C13.3804 11.6159 14.6929 11.5104 15.9961 11.4258Z" fill="white"/>
<path opacity="0.961" fill-rule="evenodd" clip-rule="evenodd" d="M15.7857 14.5195C17.7121 15.6121 19.6106 16.7605 21.481 17.9648C19.6002 19.1455 17.7134 20.3174 15.8208 21.4805C15.7857 19.1603 15.7739 16.84 15.7857 14.5195Z" fill="white"/>
</g>
<defs>
<clipPath id="clip0_683_14">
<rect width="36" height="36" fill="white"/>
</clipPath>
</defs>
</svg>
