<svg width="36" height="36" viewBox="0 0 36 36" fill="none" xmlns="http://www.w3.org/2000/svg">
<path d="M15.7057 0.0950165C11.5432 0.643456 7.85179 2.51377 4.93381 5.57236C2.40959 8.21611 0.743179 11.577 0.166616 15.177C-0.0161973 16.302 -0.0583849 18.9669 0.0892716 20.1692C0.778335 25.8013 4.08303 30.7864 9.02601 33.6341C10.8823 34.7028 12.851 35.406 15.0659 35.7927C16.2893 36.0036 18.8838 36.0528 20.1776 35.8841C27.926 34.9138 34.1276 29.1692 35.6745 21.5403C36.005 19.9231 36.0893 17.4341 35.8854 15.7395C34.8729 7.60439 28.376 1.10752 20.2409 0.0950165C19.1721 -0.0315437 16.7182 -0.0315437 15.7057 0.0950165ZM22.7721 9.97392V11.7317H21.5065C19.5237 11.7317 19.5377 11.7177 19.5377 13.6653V14.9661H21.1549H22.7721V15.156C22.7721 15.3599 22.526 17.7927 22.4557 18.32L22.4135 18.6224H20.9721H19.5377V23.8255V29.0286H17.3932H15.2487V23.8255V18.6224H14.194H13.1393V16.7942V14.9661H14.194H15.2487V13.4895C15.2487 11.7458 15.333 11.2044 15.7409 10.3466C16.0995 9.6083 16.6549 9.03876 17.3721 8.6872C18.1948 8.28642 18.6096 8.23017 20.8245 8.22314L22.7721 8.21611V9.97392Z" fill="white"/>
</svg>
