<svg width="37" height="36" viewBox="0 0 37 36" fill="none" xmlns="http://www.w3.org/2000/svg">
<g clip-path="url(#clip0_683_8)">
<path d="M16.743 0.0491371C13.3328 0.393669 10.0844 1.69445 7.39141 3.78273C6.56875 4.42257 5.16953 5.8007 4.4875 6.64445C2.48359 9.12648 1.20391 12.0234 0.6625 15.2929C0.479688 16.4038 0.479688 19.596 0.6625 20.707C1.33047 24.7359 3.08125 28.139 5.92187 30.9023C8.81172 33.7148 12.2359 35.3601 16.3211 35.9015C17.5445 36.0562 20.2094 36.007 21.4258 35.796C23.268 35.4796 24.8359 34.9734 26.4812 34.1648C28.225 33.307 29.6312 32.3155 31.0797 30.9023C33.8852 28.1671 35.6289 24.8413 36.2969 20.9249C36.5078 19.7015 36.557 17.121 36.4023 15.8202C35.7555 10.5398 32.8375 5.84289 28.3797 2.91086C26.0664 1.39211 23.493 0.449921 20.7508 0.105389C19.9562 0.00695038 17.4742 -0.0282059 16.743 0.0491371ZM22.4102 10.6101C22.9375 10.7085 23.5211 10.9476 23.8937 11.2148C24.5969 11.714 24.5969 11.714 25.2648 11.496C25.5812 11.3905 26.0664 11.1937 26.3266 11.0601C26.8117 10.821 26.9383 10.814 26.9383 11.0319C26.9383 11.2429 26.5305 11.9882 26.2281 12.3327C26.0664 12.5155 25.9539 12.6773 25.975 12.6984C25.9961 12.7194 26.2984 12.6421 26.643 12.5226C26.9875 12.403 27.3039 12.3046 27.3531 12.3046C27.6344 12.3046 27.1984 12.9515 26.2914 13.8585L25.7008 14.4491L25.6164 15.4335C25.5109 16.6077 25.3914 17.2335 25.075 18.1827C23.8305 21.9304 20.8 24.5741 16.9187 25.2984C15.9414 25.4741 14.043 25.4601 13.0516 25.2562C11.8633 25.0171 10.3727 24.4687 9.78203 24.0468C9.55 23.878 9.50781 23.6601 9.69766 23.5687C9.76094 23.5335 10.2109 23.4843 10.6961 23.4632C11.35 23.4351 11.7367 23.3788 12.2078 23.2452C12.8055 23.0695 14.282 22.3945 14.282 22.296C14.282 22.2749 14.057 22.1835 13.7828 22.0921C13.1078 21.8812 12.5453 21.5296 12.0742 21.0234C11.6664 20.5734 11.1391 19.6171 11.2234 19.4765C11.2656 19.4132 11.4133 19.3991 11.7227 19.4273C11.9687 19.4554 12.1727 19.4484 12.1727 19.4202C12.1727 19.3921 12.025 19.2937 11.8422 19.1952C11.35 18.9351 10.7031 18.253 10.4008 17.6765C10.0211 16.9523 9.78906 15.8413 9.99297 15.7148C10.0352 15.6937 10.2672 15.7499 10.5133 15.8484C10.7664 15.9468 11.0055 16.0312 11.0477 16.0312C11.0898 16.0312 10.9844 15.8484 10.8156 15.6234C10.218 14.857 9.99297 14.196 9.99297 13.2187C9.99297 12.5577 10.0562 12.2554 10.3234 11.6507C10.45 11.3695 10.5414 11.2499 10.6328 11.2499C10.7102 11.2499 10.7664 11.278 10.7664 11.3062C10.7664 11.4327 12.1867 12.7616 12.7422 13.1624C13.4734 13.6827 14.5914 14.2523 15.4773 14.5476C16.1523 14.7796 17.6852 15.0749 17.8469 15.0187C17.9102 14.9905 17.9383 14.8218 17.9383 14.5054C17.9453 13.4366 18.3461 12.4101 19.0352 11.707C19.9141 10.814 21.2289 10.3851 22.4102 10.6101Z" fill="white"/>
</g>
<defs>
<clipPath id="clip0_683_8">
<rect width="36" height="36" fill="white" transform="translate(0.5)"/>
</clipPath>
</defs>
</svg>
