<svg width="37" height="36" viewBox="0 0 37 36" fill="none" xmlns="http://www.w3.org/2000/svg">
<g clip-path="url(#clip0_683_3)">
<path d="M16.7416 0.0491371C13.3314 0.393669 10.083 1.69445 7.39004 3.78273C6.56738 4.42257 5.16816 5.8007 4.48613 6.64445C2.52441 9.07726 1.24473 11.9179 0.696289 15.0749C0.492383 16.2843 0.436133 18.9491 0.597852 20.1796C0.900195 22.4437 1.45566 24.2648 2.44707 26.2124C3.27676 27.8507 4.24707 29.1937 5.59707 30.5788C8.50801 33.5671 12.0869 35.346 16.3197 35.9015C17.5432 36.0562 20.208 36.007 21.4244 35.796C23.2666 35.4796 24.8346 34.9734 26.4799 34.1648C28.2236 33.307 29.6299 32.3155 31.0783 30.9023C33.8697 28.1812 35.6275 24.8273 36.2955 20.9249C36.5064 19.7015 36.5557 17.121 36.401 15.8202C35.7541 10.5398 32.8361 5.84289 28.3783 2.91086C26.065 1.39211 23.4916 0.449921 20.7494 0.105389C19.9549 0.00695038 17.4728 -0.0282059 16.7416 0.0491371ZM23.351 9.16867C24.9611 9.61164 26.2127 10.6312 26.9017 12.0585C27.4783 13.2538 27.4642 13.1132 27.4642 17.9999C27.4642 22.8444 27.4783 22.7249 26.9369 23.871C26.4096 25.0101 25.5728 25.8538 24.4408 26.4023C23.2455 26.9788 23.3861 26.9648 18.4994 26.9648C13.6127 26.9648 13.7533 26.9788 12.558 26.4023C11.426 25.8538 10.5893 25.0101 10.0619 23.871C9.5205 22.7249 9.53457 22.8444 9.53457 17.9999C9.53457 13.1554 9.5205 13.2749 10.0619 12.1288C10.8424 10.4484 12.4666 9.27414 14.2736 9.07023C14.5689 9.04211 16.6291 9.02101 18.851 9.02804C22.4791 9.04211 22.9432 9.05617 23.351 9.16867Z" fill="white"/>
<path d="M14.2112 10.835C12.8612 11.06 11.6519 12.2342 11.3636 13.6193C11.2159 14.3014 11.2159 21.6842 11.3566 22.3592C11.5112 23.0975 11.7925 23.6037 12.3409 24.1592C12.8964 24.7076 13.4027 24.9889 14.1409 25.1436C14.8159 25.2842 22.1987 25.2842 22.8737 25.1436C23.598 24.9889 24.0972 24.7076 24.6597 24.1521C25.2151 23.6037 25.4823 23.1186 25.644 22.3732C25.7847 21.6842 25.7847 14.3084 25.637 13.6193C25.3417 12.2061 24.1394 11.0529 22.719 10.8279C22.1565 10.7436 14.7597 10.7506 14.2112 10.835ZM23.7667 12.424C24.0901 12.6631 24.2659 12.9936 24.2659 13.3592C24.2659 14.3998 22.8948 14.8357 22.2972 13.992C22.1284 13.7529 22.044 13.324 22.1144 13.0498C22.1706 12.8107 22.494 12.4451 22.7542 12.3326C23.0284 12.2061 23.5276 12.2482 23.7667 12.424ZM19.1542 13.4365C21.587 13.8092 23.394 16.1365 23.0776 18.492C22.7894 20.6646 21.2214 22.2607 19.0769 22.5701C17.0378 22.8725 14.9284 21.5928 14.1831 19.61C13.1777 16.9381 14.8651 13.9779 17.6917 13.4646C18.3245 13.3451 18.5355 13.3451 19.1542 13.4365Z" fill="white"/>
<path d="M17.7267 15.2295C15.6173 15.799 14.9142 18.5061 16.4751 20.0389C18.1416 21.6771 20.94 20.7701 21.3337 18.4639C21.6853 16.4037 19.7658 14.6811 17.7267 15.2295Z" fill="white"/>
</g>
<defs>
<clipPath id="clip0_683_3">
<rect width="36" height="36" fill="white" transform="translate(0.5)"/>
</clipPath>
</defs>
</svg>
