<svg width="106" height="70" viewBox="0 0 106 70" fill="none" xmlns="http://www.w3.org/2000/svg">
<path d="M0 70V7.77778L37.2951 0H105.115V58.2065L76.66 70H0Z" fill="#8FFF00"/>
<path d="M14.9731 33.2787V39.6682H14.8446L11.9436 33.2787H5.6459V46.1311H10.5482V39.7416H10.6767L13.743 46.1311H19.8754V33.2787H14.9731Z" fill="black"/>
<path d="M32.3466 37.1344V33.2787H21.5322V46.1311H32.3466V42.2754H26.4345V41.4492H31.8141V37.9607H26.4345V37.1344H32.3466Z" fill="black"/>
<path d="M41.4341 46.1311H46.6853L44.3167 41.7062C45.3817 40.9351 45.9141 39.7049 45.9141 37.9974C45.9141 34.8393 44.0964 33.2787 40.3692 33.2787C40.2958 33.2787 33.8144 33.2787 33.8144 33.2787V46.1311H38.7167V42.6977C39.0656 42.6977 39.4695 42.6977 39.7817 42.6977L41.4341 46.1311ZM39.8918 36.9508C40.6997 36.9508 41.1403 37.2262 41.1403 37.9974C41.1403 38.7502 40.6997 39.0256 39.8918 39.0256C39.6164 39.0256 39.139 39.0256 38.7167 39.0256V36.9508C39.139 36.9508 39.6164 36.9508 39.8918 36.9508Z" fill="black"/>
<path d="M54.7592 33.2787C54.6307 33.2787 47.7822 33.2787 47.7822 33.2787V46.1311C47.7822 46.1311 54.6307 46.1311 54.7592 46.1311C59.1474 46.1311 61.4792 43.6708 61.4792 39.7049C61.4792 35.739 59.1474 33.2787 54.7592 33.2787ZM54.0799 41.7246C53.4005 41.7246 52.8497 41.7246 52.6845 41.7246V37.6852C52.8497 37.6852 53.4005 37.6852 54.0799 37.6852C55.714 37.6852 56.375 38.5115 56.375 39.7049C56.375 40.8984 55.714 41.7246 54.0799 41.7246Z" fill="black"/>
<path d="M15.5056 55.5869V55.4584C16.5521 55.3298 17.4885 54.1915 17.4885 52.6308C17.4885 50.2623 16.0931 49.3443 13.137 49.3443C12.5128 49.3443 5.6459 49.3443 5.6459 49.3443V62.1967C5.6459 62.1967 12.7515 62.1967 13.4859 62.1967C16.4052 62.1967 17.8007 61.04 17.8007 58.6898C17.8007 57.1292 16.8826 55.8256 15.5056 55.5869ZM10.1993 52.4839C10.2911 52.4839 11.2092 52.4839 11.6315 52.4839C12.2374 52.4839 12.7331 52.5941 12.7331 53.2367C12.7331 53.8793 12.2374 53.9711 11.6315 53.9711C11.2092 53.9711 10.2911 53.9711 10.1993 53.9711V52.4839ZM11.7784 58.9102C11.2826 58.9102 10.2177 58.9102 10.1259 58.9102V57.1475C10.2177 57.1475 11.2826 57.1475 11.7784 57.1475C12.4761 57.1475 13.0269 57.2944 13.0269 58.0289C13.0269 58.7816 12.4761 58.9102 11.7784 58.9102Z" fill="black"/>
<path d="M26.142 48.9954C21.8456 48.9954 18.9079 51.8413 18.9079 55.7705C18.9079 59.6997 21.8456 62.5456 26.142 62.5456C30.4384 62.5456 33.3761 59.6997 33.3761 55.7705C33.3761 51.8413 30.4384 48.9954 26.142 48.9954ZM26.142 57.937C24.9853 57.937 24.0305 56.9639 24.0305 55.7705C24.0305 54.577 24.8567 53.6039 26.142 53.6039C27.4272 53.6039 28.2535 54.577 28.2535 55.7705C28.2535 56.9639 27.2987 57.937 26.142 57.937Z" fill="black"/>
<path d="M42.2923 62.1967H47.7087L44.8261 55.5134L47.5435 49.3443H42.2923L40.8235 53.5856H40.5297L39.0792 49.3443H33.8281L36.5271 55.5134L33.6445 62.1967H39.0792L40.5297 57.9554H40.8235L42.2923 62.1967Z" fill="black"/>
</svg>
